<?xml version="1.0" encoding="utf-8"?>
<!-- Generator: Adobe Illustrator 21.0.0, SVG Export Plug-In . SVG Version: 6.00 Build 0)  -->
<svg version="1.1" id="Layer_1" xmlns="http://www.w3.org/2000/svg" xmlns:xlink="http://www.w3.org/1999/xlink" x="0px" y="0px"
	 viewBox="0 0 89.9 82.4" style="enable-background:new 0 0 89.9 82.4;" xml:space="preserve">
<style type="text/css">
	.st0{fill:#00A962;}
	.st1{fill:#029959;}
	.st2{fill:#FFD55B;}
	.st3{fill:url(#SVGID_1_);}
	.st4{fill:#E11383;}
	.st5{fill:#263D55;}
	.st6{fill:#F8AF19;}
	.st7{fill:#1BBFEB;}
	.st8{fill:#4F5C86;}
	.st9{fill:#32BFC9;}
	.st10{fill:#F36E40;}
	.st11{fill-rule:evenodd;clip-rule:evenodd;fill:#E11383;}
	.st12{fill:#FFFFFF;}
</style>
<g>
	<rect x="12.4" y="25.7" class="st0" width="0.5" height="17.5"/>
	<path class="st1" d="M12.3,28c0,0-0.8,1.4-2.4,0.1C8.3,26.7,8,24.4,8,24.4s2.3-0.1,3.9,1.2C13.5,26.9,12.3,28,12.3,28"/>
	<path class="st1" d="M13.2,32.1c0,0-1.3-1,0.3-2.6C15,28,17.5,28,17.5,28s-0.1,2.5-1.8,4C14.1,33.5,13.2,32.1,13.2,32.1"/>
	<path class="st0" d="M12.7,26.2c0,0-1.4-0.3-0.7-2c0.7-1.7,2.5-2.6,2.5-2.6s0.7,1.9,0.1,3.6C13.9,26.9,12.7,26.2,12.7,26.2"/>
	<path class="st0" d="M12.2,33.9c0,0-0.8,1.4-2.5,0.1c-1.7-1.4-2-3.8-2-3.8s2.4-0.2,4.1,1.2C13.4,32.8,12.2,33.9,12.2,33.9"/>
	<path class="st1" d="M12.2,39c0,0-1,1.7-2.9,0.1C7.4,37.5,7,34.7,7,34.7s2.8-0.2,4.7,1.4C13.7,37.7,12.2,39,12.2,39"/>
	<path class="st0" d="M13.2,37c0,0-1.4-1.4,0.7-2.8c2-1.5,4.8-1.1,4.8-1.1s-0.5,2.7-2.6,4.2C14,38.7,13.2,37,13.2,37"/>
	<path class="st2" d="M4.7,38.1c-0.1,0.4-0.1,0.8-0.1,1.2c0,2.7,1.8,5,4.3,6.2h7.4c2.6-1.2,4.3-3.5,4.3-6.2c0-0.4,0-0.8-0.1-1.2H4.7
		z"/>
	
		<radialGradient id="SVGID_1_" cx="-474" cy="-352.9996" r="1" gradientTransform="matrix(43.1019 0 0 -9.6292 20473.3867 -3351.6196)" gradientUnits="userSpaceOnUse">
		<stop  offset="0" style="stop-color:#D3D4D4"/>
		<stop  offset="2.017421e-02" style="stop-color:#D5D6D6"/>
		<stop  offset="0.3784" style="stop-color:#ECECEC"/>
		<stop  offset="0.7135" style="stop-color:#FAFAFA"/>
		<stop  offset="1" style="stop-color:#FFFFFF"/>
	</radialGradient>
	<path class="st3" d="M86.2,47.5H0c0,5.3,19.2,9.6,42.9,9.6h0.5C67,57.1,86.2,52.8,86.2,47.5"/>
	<path class="st4" d="M14.7,67.5L13.2,68C13,66,13,63.6,13,60.8c0-1.5,0.1-2.7,0.1-3.6l0.1-1.4H8.4c-0.3,0-0.4,0-0.5,0
		c-0.1,0.1-0.3,0.3-0.4,0.6C7.2,57.1,7,58.1,7,59.4c0,0.7,0.1,1.8,0.2,3.2c0.1,1.5,0.3,2.6,0.5,3.3L7,67.6c-1.1,0-1.9,0.1-2.5,0.2
		L3.4,68l0.5-1.9c0.8-0.1,1.5-0.2,2.2-0.2c-0.3-2.1-0.5-4-0.5-5.6c0-1.7,0.4-3.2,1.1-4.5c-0.7,0-1.2,0-1.5,0l-1.2,0.2l0.6-2.2
		c0.1,0.1,0.5,0.1,1.1,0.2c0.5,0.1,1,0.1,1.2,0.1h7.5c-0.1,2-0.1,3.8-0.1,5.5v2c0,1.3,0,2.4,0.1,3.3C14.5,65.8,14.6,66.6,14.7,67.5"
		/>
	<path class="st4" d="M27,54.2c-0.1,1.3-0.1,2-0.1,2.2v4.3c0,1.7-0.3,3.1-1,4.2c-1,1.9-2.3,2.8-3.8,2.8c-0.4,0-0.7,0-0.9,0l0.2-1.7
		c0.2,0.1,0.4,0.1,0.8,0.1c1.2,0,2-0.4,2.5-1.2c0.5-0.7,0.7-1.7,0.7-2.8v-6.1h-2c-0.9,0-1.6,0-2.2,0c-1.5,0-2.6,0-3.5,0.1l-1.2,0.1
		l0.6-2.3c0.1,0.1,0.5,0.1,1,0.2c0.6,0.1,1,0.1,1.3,0.1H27z M19.4,71.4l-1.5,0.7c-0.1-0.7-0.1-2.7-0.1-6c0-3.4,0.1-5.6,0.2-6.6
		l1.4-0.3c-0.2,1.3-0.3,3.3-0.3,6.2C19,68.5,19.2,70.5,19.4,71.4"/>
	<path class="st4" d="M37.1,67.5L35.6,68v-7.8c0-1.7-0.3-2.8-0.8-3.5c-0.5-0.7-1.4-0.9-2.8-0.8l-3.3,0.3l0.6-2.2
		c0.4,0.2,1,0.3,1.8,0.3h1.5c1.6,0,2.8,0.5,3.4,1.4c0.6,0.9,0.9,2.4,0.9,4.5V65C37,65.9,37,66.7,37.1,67.5"/>
	<path class="st4" d="M48,65.9l-0.5,1.7h-4.8c-1.4,0-2.5,0.1-3.3,0.2L38.5,68l0.6-1.9c0.5-0.1,1.5-0.2,3.2-0.2h2.9v-10
		c-2.2-0.1-3.8-0.1-4.8,0l-1.6,0.2l0.6-2.2c0.1,0.1,0.5,0.1,1.1,0.2c0.6,0.1,1,0.1,1.3,0.1h5c0,0.3-0.1,0.9-0.1,1.7
		c0,0.5-0.1,1.1-0.1,1.9l-0.1,8.1H48z"/>
	<path class="st5" d="M59.8,67.5L58.2,68c-0.1-1.8-0.2-4.2-0.2-7.3c0-0.9,0-2.3,0.1-4l0-0.7c-4.4,0-6.8,0-7.3,0.1l-1.1,0.1l0.6-2.2
		c0.1,0.1,0.5,0.1,1.1,0.2c0.6,0.1,1,0.1,1.3,0.1h7c-0.2,1.4-0.3,2.9-0.3,4.3v2c0,1.3,0,2.4,0.1,3.3C59.6,65.6,59.7,66.9,59.8,67.5
		 M52.3,59.5c-0.2,1.1-0.3,2.4-0.3,3.9c0,1.8,0.1,3.2,0.2,4.1L50.7,68v-3.3c0-2.1,0.1-3.7,0.3-4.6L52.3,59.5z"/>
	<path class="st5" d="M67.2,65.9l-0.5,1.8c-0.3,0-0.8,0-1.4,0c-0.5,0-1,0-1.2,0c-0.5,0-0.9,0-1.2,0.1l-1.1,0.1l0.5-1.8
		c0.6-0.1,1.7-0.1,3.5-0.1l-0.1-8.6c0-0.6-0.1-1-0.3-1.2c-0.2-0.2-0.5-0.3-1-0.3c-0.8,0-1.4,0-1.7,0.1L62,56.1l0.4-2.1
		c0.6,0.2,1.1,0.2,1.4,0.2h0.9c1.5,0,2.2,0.9,2.1,2.6c0,1.3-0.1,2.8-0.1,4.3v0.1C66.9,63.5,67,65,67.2,65.9"/>
	<path class="st5" d="M78.8,66l-0.7,1.6c-0.3,0-1.1,0-2.5,0c-1,0-1.9,0-2.5,0c-0.9,0-1.7,0.1-2.3,0.2L69.3,68l0.5-1.9
		c0.7-0.1,1.6-0.2,2.7-0.2h5l-0.1-6.7c0-1.2-0.2-2-0.6-2.5c-0.4-0.5-1-0.8-1.8-0.8h-1l-1.9,0c-0.2,1.3-0.3,2.5-0.3,3.6
		c0,0.7,0,1.2,0.1,1.7l-1.8,0.5l0.8-5.8l-2.1,0.1l0.6-2.2c0.5,0.2,1.1,0.3,1.6,0.3l4,0c1.3,0,2.2,0.3,2.7,0.9c0.6,0.7,0.9,2.1,1,4.1
		l0.1,4.8C78.8,65.1,78.8,65.7,78.8,66"/>
	<path class="st5" d="M89.9,54.2L89.4,56L88,55.9v8.5c0,0.9,0.1,2,0.2,3.2L86.7,68l0.1-12c-0.5,0-1,0-1.5,0c-1.5,0-3.1,0.1-4.8,0.2
		l0.6-2.2c0.1,0.1,0.5,0.1,1.1,0.2c0.5,0.1,1,0.1,1.2,0.1H89.9z"/>
	<path class="st4" d="M37.6,69.6c-0.3,0.2-0.5,0.5-0.8,0.9c-0.2-0.2-0.3-0.4-0.4-0.5c-0.1-0.1-0.3-0.3-0.4-0.4
		c0.2-0.2,0.5-0.4,0.8-0.9c0.2,0.2,0.3,0.4,0.3,0.4C37.2,69.3,37.4,69.5,37.6,69.6"/>
	<path class="st4" d="M35.7,69.6c-0.3,0.2-0.5,0.5-0.8,0.9c-0.2-0.2-0.3-0.4-0.4-0.5c-0.1-0.1-0.3-0.3-0.4-0.4
		c0.2-0.2,0.5-0.4,0.9-0.9c0.2,0.2,0.3,0.4,0.3,0.4C35.3,69.3,35.5,69.5,35.7,69.6"/>
	<path class="st4" d="M36.6,70.9c-0.3,0.2-0.5,0.5-0.8,0.9c-0.2-0.2-0.3-0.4-0.4-0.5c-0.1-0.1-0.3-0.3-0.4-0.4
		c0.2-0.2,0.5-0.4,0.9-0.9c0.2,0.2,0.3,0.4,0.3,0.4C36.2,70.6,36.4,70.8,36.6,70.9"/>
	<path class="st4" d="M24.8,69.6c-0.3,0.2-0.5,0.5-0.8,0.9c-0.2-0.2-0.3-0.4-0.4-0.5c-0.1-0.1-0.3-0.3-0.4-0.4
		c0.2-0.2,0.5-0.4,0.9-0.9c0.2,0.2,0.3,0.4,0.3,0.4C24.5,69.3,24.6,69.5,24.8,69.6"/>
	<path class="st4" d="M22.9,69.6c-0.3,0.2-0.5,0.5-0.8,0.9c-0.2-0.2-0.3-0.4-0.4-0.5c-0.1-0.1-0.3-0.3-0.4-0.4
		c0.2-0.2,0.5-0.4,0.9-0.9c0.2,0.2,0.3,0.4,0.3,0.4C22.6,69.3,22.7,69.5,22.9,69.6"/>
	<path class="st4" d="M23.8,70.9c-0.3,0.2-0.5,0.5-0.8,0.9c-0.2-0.2-0.3-0.4-0.4-0.5c-0.1-0.1-0.3-0.3-0.4-0.4
		c0.2-0.2,0.5-0.4,0.8-0.9c0.2,0.2,0.3,0.4,0.3,0.4C23.5,70.6,23.6,70.8,23.8,70.9"/>
	<path class="st4" d="M43.5,69.2c0.7,0,1.2,0,1.5-0.1l-0.3,1c-0.2,0-0.6,0-1.2-0.1c0,0.6,0,0.9,0.1,1.1l-1.1,0.3
		c0-0.3,0.1-0.7,0.1-1.4c-0.7,0-1.2,0-1.5,0.1l0.3-1c0.2,0,0.6,0,1.2,0.1"/>
	<path class="st4" d="M42.9,60.9c-0.3,0.2-0.5,0.5-0.8,0.9c-0.2-0.2-0.3-0.4-0.4-0.5c-0.1-0.1-0.3-0.3-0.4-0.4
		c0.2-0.2,0.5-0.4,0.8-0.9c0.2,0.2,0.3,0.4,0.3,0.4C42.5,60.6,42.7,60.8,42.9,60.9"/>
	
		<rect x="51.3" y="23.9" transform="matrix(0.9563 -0.2925 0.2925 0.9563 -7.8895 16.9863)" class="st6" width="3.1" height="21.9"/>
	<rect x="24.3" y="5.4" class="st7" width="9" height="40.1"/>
	<rect x="34" class="st8" width="4.5" height="45.5"/>
	<rect x="39.3" y="22.8" class="st9" width="2.2" height="22.8"/>
	<rect x="42.6" y="22.8" class="st10" width="2.2" height="22.8"/>
	<rect x="46" y="22.8" class="st4" width="2.2" height="22.8"/>
	<path class="st11" d="M88.8,9.4c-0.3,0.2,0.1,1.5-0.3,1.8c-0.1,0.1-1-2.1-1.1-2.1c-0.5,0.3,0.5,2.1,0.7,2.6
		c0.2,0.6,0.4,1.1,0.4,1.8c0,0.1-0.6,1.6-0.7,1.5c-0.2-0.1,0-0.9-0.1-1c-0.1-0.5-0.3-0.5-0.5-0.9c-0.1-0.2-0.7-2.4-1.1-2.3
		c-0.3,0.1,1.2,3-0.2,2.2c-0.1,0-0.8-2.3-1.3-1.8c-0.1,0.1,0.6,1.3,0.6,1.5c0,0.2-2-1.8-1.6-0.4c0.2,0.8,1.5,1.2,2.1,1.4
		c0.7,0.3,1.2,0.2,1.5,1.1c0.2,0.6-1,2.3-1,2.2c-0.1-0.1,0.2-2.1,0.1-2c-0.1,0.1-0.3,0.8-0.5,0.6c-0.4-0.2-0.2-0.9-0.7-1.2
		c-0.7-0.3,0.3,1.6,0.4,2c0.1,0.5-0.2,2.3-1.1,2c-0.6-0.2-0.6-2.3-1.1-2.7c-0.6-0.5,0.1,1.7,0.1,1.6c0.2,0.6,0.5,1.3,0.2,1.9
		c-0.1,0.3-1,1.3-1.4,1.5c-0.5,0.2-0.2,0-0.7,0c-0.6,0-1.4-0.4-1.6-1c-0.1-0.2,0.3-3.5-0.2-3.4c-0.2,0.1,0.2,4-1,2.4
		c-0.3-0.4,0.6-3.7,0-3.8c-0.1,0-0.3,1.8-0.5,1.7c-0.5-0.1-0.6-1.4-0.5-1.7c0-0.1,1.6-1.4,0.8-1.7c0.1,0-2.2,1.9-2.1,1.5
		c0.2-0.7,1.1-1.2,1.2-1.9c0-0.1-1.6,1.8-1.2,0.2c0.1-0.4,1.3-2.5,1.5-2.6c-1.3,0.2-1.3,2.4-2.1,2.5c0,0-0.2-2-0.3-2.1
		c-0.3-0.3-0.2,1-0.2,1c0.2-0.3-0.2,4.8-0.3,4.7c0,0,0,0-0.1-0.1c-0.2-0.3-0.6-0.6-0.8-1c-0.2-0.4,0.4-3.7,0-3.8
		c0,0-0.3,1.3-0.4,1.2c-0.1-0.1-0.5-1.9-0.8-1.3c-0.1,0.2,0.3,1.8,0.3,2.1c0.2,1.4,0.7,2.6,1.7,3.7c0.7,0.7,1.5,1.1,2.2,1.6
		c0.7,0.5,1.3,1.3,2.1,1.8c0.1,0,1.8,0.8,1.3,1.1c-0.5,0.3-2.5-1.1-2.6-0.7c-0.2,2.2,2.3,1.6,2.4,1.7c0.6,0.6-0.1,2.4-0.2,2.8
		c-0.1,0.7-0.3,2.3-1.1,2.8c-0.8,0.5-1.8-0.2-2.6-0.2c-0.9,0-1.9,0.4-2.8,0.6c-1.3,0.3-2.7,0.1-4-0.1c-0.7-0.1-1.6-0.4-2.3-0.2
		l-0.1,0c0,0-0.3-0.1-1.1,0.7c-0.8,0.8-1.4,1.6-1.4,1.6l-0.1,0.8c0,0,0.4,1.6,0.7,2c0.1,0.2,0.2,0.4,0.2,0.7
		c0.2,0.7,0.6,1.6,0.5,2.4c-0.1,0.8-0.8,1.1-1.1,1.8c-0.4,0.7-0.4,0.1-0.2,1.2c0.1,0.8,0.3,1.6,0.5,2.3c0,0.1,0.5,3.3,0.8,3.3
		c0.1,0.1,0.3,0,0.4,0c0.2,0,0-0.2,0-0.2L66.6,45c-0.2-0.9-0.7-4.2-0.7-4.6c0-0.8,0.4-2.1,1.2-2.1c0.1,0,0,0.8,0.2,1l1.3,3.4
		c0.1,0.7,1.8,4.1,1.5,2.1c-0.1-1.1-0.8-2.4-1.1-3.4c-0.6-1.8-0.7-1.9,0.5-3.3c0.5-0.6,0.9-1.6,1.6-1.7c0.6-0.1,1.7,0.9,2.3,1
		c1.5,0.2,3-1.1,4.4-1.3c0.9-0.1,0.9-0.1,1.2,0.9c0.2,0.6,0.3,1.1,0.3,1.7c0.1,1.4,0.5,2.7,0.7,4c0.1,0.6-0.3,3.1,0.3,3.2
		c1.2,0.2-0.9-7.9-0.1-8.2c-0.3,0.1,0.7,4.4,0.9,4.9c0.1,0.3,1.2,3.2,1.7,2.7c0.3-0.3-0.6-1.6-0.8-2.1c-0.5-1.3-0.6-2.8-0.7-4
		C81.2,38,81,37,81.6,35.8c0.6-1.3,0.8-2.5,1.3-3.9c0.5-1.4,0.8-2.9,1-4.4c0.1-0.8-0.4-1.5-0.2-2.3c0.2-0.7,1.4-0.4,1.4-1.3
		c0-0.3-1-1.3-0.9-1.6c0.4-1.1,1.8-0.6,2.3-2.8c0,0-1.4,0.2-1.6,0.3c-0.4,0.3-1,1.5-1.2,0.9c-0.4-0.9,2.1-2.7,2.6-3.3
		c1.4-1.3,2.5-2.6,2.8-4.5C89.2,12.7,89.2,9.2,88.8,9.4 M77.6,18.1L77.6,18.1L77.6,18.1c-0.2,0-0.4-0.1-0.5-0.1L77,17.8l-0.1-0.1
		l-0.1,0c-0.1-0.1-0.2-0.1-0.3-0.2l-0.2-0.2l-0.1-0.1c-0.2-0.2-0.2-0.3-0.2-0.6c0-0.1,0-0.2,0.1-0.3c0.1-0.1,0.1-0.3,0.1-0.4
		l0.1-0.2l0.1-0.1c0.1-0.1,0.3-0.3,0.4-0.4l0.1,0l0,0l0.1,0.2l0.1,0.1l0.1,0.1l0.1,0.2c0.1,0.2,0.1,0.4,0.2,0.7
		c0.1,0.2,0.1,0.5,0.1,0.7l0,0.1c0,0.2,0,0.3,0.1,0.5C77.6,17.7,77.6,17.9,77.6,18.1L77.6,18.1"/>
	<path class="st12" d="M85.6,47.4c0,0.6-19.1,0.4-42.8,0.4c-23.6,0-42.8,0.2-42.8-0.4c0-0.6,19.1-1.1,42.8-1.1
		C66.5,46.2,85.6,46.7,85.6,47.4"/>
	<path class="st5" d="M6.5,80.7l-0.7,0.2c-0.1-0.7-0.1-1.6-0.1-2.5c0-0.5,0-0.9,0-1.1l0-0.3H4.5c-0.2,0-0.3,0.1-0.4,0.2
		c0,0.1-0.1,0.4-0.1,0.8c0,0.2,0,0.6,0,1c0,0.5,0.1,0.8,0.1,0.9C4.1,80.1,4,80.4,4,80.8c-0.4,0-0.7,0-1,0.1l-0.4,0.1l0.2-1
		c0.1,0,0.2,0,0.4,0c0.1,0,0.2,0,0.3,0c0-0.2,0-0.8,0-1.7c0-0.5,0.1-0.9,0.3-1.2c-0.1,0-0.2,0-0.4,0l-0.4,0.1L3.1,76
		c0.1,0.1,0.4,0.1,0.8,0.1h2.6c0,0.7-0.1,1.3-0.1,1.9v0.7c0,0.4,0,0.8,0,1.1C6.4,80.1,6.5,80.4,6.5,80.7z M8.7,76.1
		c-0.1,0.5-0.1,0.8-0.1,0.9v0.7c0,0.4,0,0.7,0,0.9L7.9,79C8,78.6,8,78.1,8,77.6c0-0.2,0-0.4,0-0.6c-0.4,0-0.7,0-0.9,0.1L7.3,76
		c0.1,0.1,0.4,0.1,0.7,0.1H8.7z M12.4,79.9l-0.2,1h-1.6c-0.5,0-0.9,0-1.2,0.1l-0.3,0.1l0.2-1c0.2,0,0.8-0.1,1.9-0.1V77
		c-0.7,0-1.1,0-1.4,0l-0.6,0.1L9.5,76c0.1,0.1,0.4,0.1,0.8,0.1H12c0,0.1,0,0.3,0,0.6c0,0.2,0,0.4,0,0.7l0,2.5H12.4z M16.3,76.1
		c-0.1,0.6-0.1,1.1-0.1,1.5v0.7c0,0.5,0,0.9,0,1.2c0,0.5,0.1,0.9,0.1,1.2l-0.7,0.2c0-0.6-0.1-1.4-0.1-2.2c0-0.4,0-0.9,0.1-1.4l0-0.2
		c-1.4,0-2.1,0-2.3,0l-0.4,0l0.2-1.1c0.1,0.1,0.4,0.1,0.8,0.1H16.3z M13.8,79.4c0,0.6,0,1,0.1,1.4l-0.8,0.2c0-0.3,0-0.6,0-1.2
		c0-0.6,0-1.1,0.1-1.6l0.7-0.2C13.9,78.2,13.8,78.7,13.8,79.4L13.8,79.4z M22.5,80.7l-0.7,0.2c-0.1-0.7-0.1-1.6-0.1-2.5
		c0-0.5,0-0.9,0-1.1l0-0.3h-1.3c-0.2,0-0.3,0.1-0.4,0.2c0,0.1-0.1,0.4-0.1,0.8c0,0.2,0,0.6,0,1c0,0.5,0.1,0.8,0.1,0.9
		c-0.1,0.2-0.1,0.5-0.2,0.9c-0.4,0-0.7,0-1,0.1l-0.4,0.1l0.2-1c0.1,0,0.2,0,0.4,0c0.1,0,0.2,0,0.3,0c0-0.2,0-0.8,0-1.7
		c0-0.5,0.1-0.9,0.3-1.2c-0.1,0-0.2,0-0.4,0l-0.4,0.1L19,76c0.1,0.1,0.4,0.1,0.8,0.1h2.6c0,0.7-0.1,1.3-0.1,1.9v0.7
		c0,0.4,0,0.8,0,1.1C22.4,80.1,22.4,80.4,22.5,80.7z M28,76.1L28,76.1c0,0.2-0.1,0.6-0.1,1l-0.1,1.4c-0.1,0.8-0.4,1.4-1,2
		c-0.2,0.2-0.4,0.3-0.6,0.4c-0.2,0-0.4,0.1-0.7,0.1c-0.6,0-1-0.2-1.3-0.5c-0.2-0.2-0.3-0.4-0.4-0.7c-0.1-0.2-0.1-0.6-0.1-1L23.7,77
		c-0.1,0-0.1,0-0.2,0c-0.2,0-0.3,0-0.4,0.1l0.2-1.1c0.1,0.1,0.3,0.1,0.5,0.1h0.6c0,0.1,0,0.2,0,0.4c0,0.2,0,0.3,0,0.5l0.1,1.6
		c0,0.5,0.1,0.9,0.3,1.1c0.1,0.1,0.3,0.2,0.5,0.2c0.1,0,0.1-0.1,0.1-0.2V77c-0.1,0-0.3,0-0.6,0.1L25,76c0.1,0.1,0.3,0.1,0.6,0.1h0.6
		c-0.1,0.4-0.1,0.8-0.1,1.1L26,79c0,0.2,0,0.4-0.1,0.5c0,0.1-0.1,0.2-0.3,0.4h0.3c0.4,0,0.7-0.1,0.8-0.3c0.2-0.2,0.3-0.7,0.4-1.2
		l0.1-1.4c0,0-0.1,0-0.2,0c-0.2,0-0.3,0-0.5,0.1l0.2-1.1c0.1,0.1,0.3,0.1,0.5,0.1H28z M31.7,79.9l-0.2,1H30c-0.5,0-0.9,0-1.2,0.1
		l-0.3,0.1l0.2-1c0.2,0,0.8-0.1,1.9-0.1V77c-0.7,0-1.1,0-1.4,0l-0.6,0.1l0.2-1.1c0.1,0.1,0.4,0.1,0.8,0.1h1.7c0,0.1,0,0.3,0,0.6
		c0,0.2,0,0.4,0,0.7l0,2.5H31.7z M35.2,76.1L35.2,76.1c0,0.3,0,0.5-0.1,0.8l0,1.5c0,0.5-0.1,0.9-0.4,1.4c-0.2,0.4-0.5,0.7-0.9,0.9
		c-0.2,0.1-0.5,0.2-1,0.2h-0.4l0.2-0.9h0.5c0.4,0,0.7-0.1,0.9-0.4c0.2-0.2,0.3-0.6,0.3-1V77c-0.4,0-0.8,0-1,0c-0.3,0-0.5,0-0.7,0
		l-0.5,0c0-0.4,0-0.8,0-1.3c0-0.4-0.1-0.9-0.2-1.2l0.8-0.3c0,0.6,0,1,0,1.2c0,0.2,0,0.4,0,0.6c0,0,0.1,0,0.3,0H35.2z M39.3,76.1
		c-0.1,0.6-0.1,1.1-0.1,1.5v0.7c0,0.5,0,0.9,0,1.2c0,0.5,0.1,0.9,0.1,1.2l-0.7,0.2c0-0.6-0.1-1.4-0.1-2.2c0-0.4,0-0.9,0.1-1.4l0-0.2
		c-1.4,0-2.1,0-2.3,0l-0.4,0L36,76c0.1,0.1,0.4,0.1,0.8,0.1H39.3z M36.8,79.4c0,0.6,0,1,0.1,1.4l-0.8,0.2c0-0.3,0-0.6,0-1.2
		c0-0.6,0-1.1,0.1-1.6l0.7-0.2C36.8,78.2,36.8,78.7,36.8,79.4L36.8,79.4z M42.3,82.1l-0.4,0.3V75l0.4-0.3V82.1z M47.1,80.2
		c0,0.1,0,0.3,0.1,0.5l-0.6,0.2c0-0.1-0.1-0.5-0.2-1.4c0,0,0,0,0,0c0,0,0,0,0,0L46,80.3c0,0.1-0.1,0.2-0.1,0.2
		c-0.2,0.2-0.6,0.3-1.1,0.5h-0.1l0.2-1.1c0.3-0.1,0.5-0.1,0.6-0.2c0.2-0.1,0.4-0.2,0.5-0.3c0.1-0.1,0.2-0.2,0.2-0.3
		c0-0.1,0.1-0.3,0.1-0.5l0-0.6c0-0.2,0-0.6,0-1c-0.1,0-0.2,0-0.3,0c-0.3,0-0.6,0-0.9,0.1l0.2-1.1c0.1,0.1,0.4,0.1,0.7,0.1
		c0.4,0,0.8,0,1.1,0c0,0.5-0.1,0.9,0,1.4l0,1C46.9,79,47,79.6,47.1,80.2L47.1,80.2z M49.5,78.5c0,0.6,0,1.1,0.1,1.4l-0.2,0.9
		c-0.9,0-1.4,0-1.5,0l-0.4,0.1l0.2-1c0.2,0,0.6,0,1.2,0l0-2.5c0-0.2,0-0.3-0.1-0.3C48.7,77,48.6,77,48.4,77c-0.2,0-0.3,0-0.5,0
		l-0.2,0l0.2-1c0.2,0.1,0.3,0.1,0.5,0.1h0.4c0.3,0,0.5,0.1,0.6,0.2c0.1,0.1,0.2,0.3,0.2,0.7c0,0.8,0,1.3,0,1.5V78.5L49.5,78.5z
		 M51.8,76.1c-0.1,0.5-0.1,0.8-0.1,0.9v0.7c0,0.4,0,0.7,0,0.9L51,79c0.1-0.5,0.1-0.9,0.1-1.4c0-0.2,0-0.4,0-0.6
		c-0.4,0-0.7,0-0.9,0.1l0.2-1.1c0.1,0.1,0.4,0.1,0.7,0.1H51.8z M55.5,76.1L55.5,76.1c0,0.3,0,0.5-0.1,0.8l0,1.5
		c0,0.5-0.1,0.9-0.4,1.4c-0.2,0.4-0.5,0.7-0.9,0.9c-0.2,0.1-0.5,0.2-1,0.2h-0.4l0.2-0.9h0.5c0.4,0,0.7-0.1,0.9-0.4
		c0.2-0.2,0.3-0.6,0.3-1V77c-0.4,0-0.8,0-1,0c-0.3,0-0.5,0-0.7,0l-0.5,0c0-0.4,0-0.8,0-1.3c0-0.4-0.1-0.9-0.2-1.2l0.8-0.3
		c0,0.6,0,1,0,1.2c0,0.2,0,0.4,0,0.6c0,0,0.1,0,0.3,0H55.5z M57.6,76.1c-0.1,0.5-0.1,0.8-0.1,0.9v0.7c0,0.4,0,0.7,0,0.9L56.8,79
		c0.1-0.5,0.1-0.9,0.1-1.4c0-0.2,0-0.4,0-0.6c-0.4,0-0.7,0-0.9,0.1l0.2-1.1c0.1,0.1,0.4,0.1,0.7,0.1H57.6z M59.8,76.1
		c-0.1,0.5-0.1,0.8-0.1,0.9v0.7c0,0.4,0,0.7,0,0.9L59,79c0.1-0.5,0.1-0.9,0.1-1.4c0-0.2,0-0.4,0-0.6c-0.4,0-0.7,0-0.9,0.1l0.2-1.1
		c0.1,0.1,0.4,0.1,0.7,0.1H59.8z M64.5,76.1c0,0.4-0.1,0.8-0.1,1.2l-0.1,1.5c0,0.6-0.2,1.2-0.6,1.6c-0.3,0.4-0.7,0.5-1.2,0.5
		c-0.5,0-0.9-0.2-1.1-0.5c-0.2-0.3-0.3-0.8-0.4-1.4L61,77c-0.1,0-0.2,0-0.3,0c-0.2,0-0.3,0-0.4,0.1l0.2-1.1c0.1,0.1,0.4,0.1,0.8,0.1
		h0.5c0,0.1,0,0.3,0,0.5c0,0.2,0,0.4,0,0.4l0,1.8c0,0.4,0.1,0.7,0.2,0.9c0.1,0.1,0.4,0.2,0.7,0.2c0.4,0,0.7-0.1,0.8-0.3
		c0.1-0.2,0.2-0.5,0.2-0.9l0-1.8c-0.1,0-0.3,0-0.6,0c-0.2,0-0.5,0.1-0.7,0.2l0.1-1.1c0.3,0.1,0.6,0.1,1,0.1H64.5z M69.1,76.1
		c0,0.2,0,0.5-0.1,0.9L69,78.6c0,0.7-0.2,1.3-0.6,1.7c-0.3,0.4-0.7,0.6-1.2,0.6c-0.5,0-0.9-0.1-1.1-0.4c-0.3-0.3-0.4-0.8-0.4-1.4
		L65.7,77c-0.1,0-0.1,0-0.2,0c-0.2,0-0.3,0-0.5,0.1l0.2-1.1c0,0,0.2,0,0.4,0.1c0.2,0,0.4,0,0.5,0H69.1z M68.4,77h-2l0,1.8
		c0,0.4,0.1,0.7,0.2,0.9c0.1,0.2,0.4,0.2,0.7,0.2c0.4,0,0.7-0.1,0.8-0.3c0.1-0.2,0.2-0.5,0.2-0.8L68.4,77z M72.2,82.1l-0.4,0.3V75
		l0.4-0.3V82.1z M77.5,79.8c0,0.3,0,0.6,0,0.9l-0.7,0.2v-2.5c0-0.6-0.1-1-0.3-1.2C76.4,77,76.1,77,75.8,77c-0.1,0-0.2,0-0.2,0
		l-1,0.1l0.2-1.1c0.1,0.1,0.4,0.1,0.6,0.1H76c0.5,0,0.9,0.2,1.1,0.5c0.2,0.3,0.3,0.8,0.3,1.6V79.8L77.5,79.8z M81.3,76.1L81.1,77
		l-0.5,0v2.7c0,0.3,0,0.6,0.1,1L80,80.9l0-3.9c-0.2,0-0.3,0-0.5,0c-0.5,0-1,0-1.5,0.1l0.2-1.1c0.1,0.1,0.4,0.1,0.8,0.1H81.3z
		 M85.9,76.1c0,0.2,0,0.5-0.1,0.9l-0.1,1.6c0,0.7-0.2,1.3-0.6,1.7c-0.3,0.4-0.7,0.6-1.2,0.6c-0.5,0-0.9-0.1-1.1-0.4
		c-0.3-0.3-0.4-0.8-0.4-1.4L82.4,77c-0.1,0-0.1,0-0.2,0c-0.2,0-0.3,0-0.5,0.1L82,76c0,0,0.2,0,0.4,0.1c0.2,0,0.4,0,0.5,0H85.9z
		 M85.1,77h-2l0,1.8c0,0.4,0.1,0.7,0.2,0.9c0.1,0.2,0.4,0.2,0.7,0.2c0.4,0,0.7-0.1,0.8-0.3c0.1-0.2,0.2-0.5,0.2-0.8L85.1,77z"/>
</g>
</svg>
